<svg width="546" height="110" viewBox="0 0 546 110" fill="none" xmlns="http://www.w3.org/2000/svg">
<path d="M285.683 110C281.18 110 278.299 109.28 277.128 108.83V98.6543C278.479 99.0145 280.55 99.3746 282.801 99.3746C287.304 99.3746 289.375 97.2135 291.626 91.0904H288.654L270.195 46.6076H285.863L297.299 77.2233H297.479L307.834 46.6076H320.981L304.863 92.171C300.36 104.958 294.867 110 285.683 110Z" fill="#0C356A"/>
<path d="M257.227 91.8108C243.359 91.8108 238.407 85.6876 238.407 75.7825V57.233H231.833V46.6076H237.146C239.217 46.6076 239.938 45.437 240.208 42.7356L240.838 36.5224L252.094 30.9456V46.6076H266.321V57.233H252.094V75.0622C252.094 79.6545 254.255 81.0953 259.658 81.0953C261.549 81.0953 264.34 80.8251 265.871 80.4649V90.8202C264.7 91.0904 260.918 91.8108 257.227 91.8108Z" fill="#0C356A"/>
<path d="M228.635 67.5883V71.4603H197.029C197.659 78.754 201.351 81.9057 207.474 81.9057C212.787 81.9057 216.209 80.0147 216.569 75.6925H228.635C228.365 85.8677 219.901 91.8108 207.204 91.8108C192.437 91.8108 183.252 83.4365 183.252 69.2992C183.252 54.6217 192.437 45.8872 207.474 45.8872C219.901 45.8872 228.635 53.0008 228.635 67.5883ZM216.569 64.1666V63.4462C216.569 58.4036 213.147 55.7923 207.474 55.7923C201.711 55.7923 198.47 58.3136 197.389 64.1666H216.569Z" fill="#0C356A"/>
<path d="M163.142 41.9251V38.0595L176.829 31.0295V41.9251H163.142ZM163.142 91.0903V46.6075H176.829V91.0903H163.142Z" fill="#0C356A"/>
<path d="M134.538 91.8108C121.211 91.8108 111.936 83.3464 111.936 68.939C111.936 54.4416 121.391 45.8872 135.078 45.8872C148.135 45.8872 156.689 53.1809 156.689 65.5173H144.623C144.533 59.7543 141.111 56.3325 135.528 56.3325C129.135 56.3325 125.623 60.7448 125.623 68.849C125.623 76.683 129.225 81.3654 135.258 81.3654C141.111 81.3654 144.623 78.0337 144.713 72.3608H156.779C156.779 85.1473 147.684 91.8108 134.538 91.8108Z" fill="#0C356A"/>
<path d="M82.5174 91.8108C67.8398 91.8108 58.2949 83.3464 58.2949 68.939C58.2949 54.4416 67.8398 45.8872 82.5174 45.8872C97.1949 45.8872 106.74 54.4416 106.74 68.939C106.74 83.3464 97.1949 91.8108 82.5174 91.8108ZM82.5174 81.3654C89.1808 81.3654 93.0528 76.773 93.0528 68.939C93.0528 61.0149 89.1808 56.3325 82.5174 56.3325C75.8539 56.3325 71.982 61.0149 71.982 68.939C71.982 76.773 75.8539 81.3654 82.5174 81.3654Z" fill="#0C356A"/>
<path d="M25.9333 91.9908C5.58287 91.9908 0.180092 81.6355 0.180092 70.7399H13.3268C13.3268 77.1332 15.9382 81.2753 25.8433 81.2753C35.8384 81.2753 38.0895 77.6734 38.0895 73.8915C38.0895 71.3702 37.009 69.7494 34.6678 68.939C32.0564 68.0385 25.9333 67.138 20.9808 66.4177C15.1278 65.5172 9.18471 64.3466 5.76296 62.0954C1.98102 59.6642 0 55.5221 0 49.8492C0 38.6834 8.73448 30.9395 25.8433 30.9395C44.6629 30.9395 50.7861 38.7735 50.7861 52.1003H37.7294C37.7294 45.3468 34.2176 41.655 26.1134 41.655C18.0993 41.655 14.6775 44.6265 14.6775 48.5885C14.6775 51.47 15.4879 53.0908 17.559 53.9913C19.8102 54.9818 26.0234 55.9723 31.0659 56.7827C37.7294 57.8633 42.772 58.9438 46.2838 60.8348C50.5159 63.086 52.7671 67.3181 52.7671 72.901C52.7671 82.9862 47.0942 91.9908 25.9333 91.9908Z" fill="#0C356A"/>
<path d="M545.37 67.5882V71.4602H513.764C514.394 78.754 518.086 81.9056 524.209 81.9056C529.522 81.9056 532.944 80.0146 533.304 75.6924H545.37C545.1 85.8676 536.636 91.8107 523.939 91.8107C509.172 91.8107 499.987 83.4364 499.987 69.2991C499.987 54.6216 509.172 45.8871 524.209 45.8871C536.636 45.8871 545.37 53.0007 545.37 67.5882ZM533.304 64.1665V63.4461C533.304 58.4035 529.882 55.7922 524.209 55.7922C518.446 55.7922 515.205 58.3135 514.124 64.1665H533.304Z" fill="#0C356A"/>
<path d="M480.048 91.0903V28.6882L493.735 34.5025V91.0903H480.048Z" fill="#0C356A"/>
<path d="M445.796 91.8107C435.441 91.8107 428.237 87.3083 428.237 78.3037C428.237 71.01 433.46 65.6973 445.256 65.6973H459.753V62.7257C459.753 57.323 456.692 55.1618 450.389 55.1618C445.256 55.1618 442.285 57.323 442.285 60.9248C442.285 61.1949 442.285 61.9153 442.375 62.8158H429.768C429.678 62.0954 429.588 61.1049 429.588 60.2044C429.588 51.1998 437.512 45.8871 451.019 45.8871C465.156 45.8871 473.441 52.1903 473.441 64.0764V91.0903H459.753C460.024 88.8391 460.384 84.7871 460.384 82.0857H460.294C458.943 88.3889 453.9 91.8107 445.796 91.8107ZM448.498 82.5359C455.611 82.5359 459.753 79.3843 459.753 73.9815V73.081H446.517C442.825 73.081 440.574 74.7919 440.574 77.3132C440.574 80.735 443.545 82.5359 448.498 82.5359Z" fill="#0C356A"/>
<path fill-rule="evenodd" clip-rule="evenodd" d="M387.539 50.2126C390.286 52.9599 390.286 57.4141 387.539 60.1614L357.093 90.607C354.346 93.3542 349.891 93.3542 347.144 90.607L326.213 69.6756C323.466 66.9283 323.466 62.4741 326.213 59.7268C328.96 56.9795 333.414 56.9795 336.162 59.7268L352.119 75.6838L377.59 50.2126C380.337 47.4653 384.791 47.4653 387.539 50.2126Z" fill="#279EFF"/>
<path fill-rule="evenodd" clip-rule="evenodd" d="M422.973 50.2127C425.72 52.96 425.72 57.4142 422.973 60.1615L392.527 90.6071C389.78 93.3544 385.326 93.3544 382.579 90.6071L372.113 80.1414L382.062 70.1926L387.553 75.6839L413.024 50.2127C415.771 47.4654 420.226 47.4654 422.973 50.2127Z" fill="#279EFF"/>
<path d="M352.724 52.4677H343.308V57.1759H352.724V52.4677Z" fill="#0C356A"/>
<path d="M343.308 42.9716L352.724 41.9742V46.9317L343.308 47.6798V42.9716Z" fill="#0C356A"/>
<path d="M343.308 33.4758L352.724 31.4809V36.6878L343.308 38.184V33.4758Z" fill="#0C356A"/>
<path d="M396.485 41.9443L405.901 42.9418V47.6499L396.485 46.8519V41.9443Z" fill="#0C356A"/>
<path d="M396.485 31.4258L405.901 33.4208V38.1289L396.485 36.533V31.4258Z" fill="#0C356A"/>
<path d="M396.485 20.9024L405.901 23.8949V28.603L396.485 26.2091V20.9024Z" fill="#0C356A"/>
<path d="M356.606 42.9719L366.022 41.9744V46.882L356.606 47.68V42.9719Z" fill="#0C356A"/>
<path d="M356.606 33.4758L366.022 31.4809V36.588L356.606 38.184V33.4758Z" fill="#0C356A"/>
<path d="M356.606 23.9797L366.022 20.9872V26.2938L356.606 28.6878V23.9797Z" fill="#0C356A"/>
<path d="M356.606 14.4832L366.022 10.4933V15.9994L356.606 19.1914V14.4832Z" fill="#0C356A"/>
<path d="M356.606 4.98747L366.022 3.05176e-05V5.70566L356.606 9.69561V4.98747Z" fill="#0C356A"/>
<path d="M383.192 33.4758L392.608 31.4809V36.588L383.192 38.184V33.4758Z" fill="#0C356A"/>
<path d="M383.192 23.9797L392.608 20.9872V26.2938L383.192 28.6878V23.9797Z" fill="#0C356A"/>
<path d="M383.192 14.4832L392.608 10.4933V15.9994L383.192 19.1914V14.4832Z" fill="#0C356A"/>
<path d="M383.192 4.98747L392.608 3.05176e-05V5.70566L383.192 9.69561V4.98747Z" fill="#0C356A"/>
<path d="M369.896 10.4933L379.313 14.4832V19.1914L369.896 15.9994V10.4933Z" fill="#0C356A"/>
<path d="M369.896 20.9872L379.313 23.9797V28.6878L369.896 26.2938V20.9872Z" fill="#0C356A"/>
<path d="M369.896 31.4809L379.313 33.4758V38.184L369.896 36.588V31.4809Z" fill="#0C356A"/>
</svg>
